<?xml version="1.0" encoding="utf-8"?>
<!-- Generator: Adobe Illustrator 14.0.0, SVG Export Plug-In . SVG Version: 6.00 Build 43363)  -->
<!DOCTYPE svg PUBLIC "-//W3C//DTD SVG 1.1//EN" "http://www.w3.org/Graphics/SVG/1.1/DTD/svg11.dtd">
<svg version="1.1" id="Layer_1" xmlns="http://www.w3.org/2000/svg" xmlns:xlink="http://www.w3.org/1999/xlink" x="0px" y="0px"
	 width="997.229px" height="360.219px" viewBox="0 0 997.229 360.219" enable-background="new 0 0 997.229 360.219"
	 xml:space="preserve">
<path fill="#231F20" d="M829.232,136.424h21.78v93.979c0,12.484,4.819,21.881,14.507,28.231c8.361,5.755,19.809,8.625,34.342,8.625
	c15.836,0,29.926-9.018,42.258-27.041l-10.233-4.477c-4.616,8.335-11.219,12.507-19.819,12.507c-10.574,0-15.823-6.171-15.823-18.49
	v-93.335h33v-11.889h-32.355V65.543l-45.875,12.826v46.167h-21.78V136.424z M779.334,61.61c-5.388,5.057-8.083,10.357-8.083,15.91
	c0,7.743,2.518,14.193,7.589,19.341c5.061,5.16,11.991,7.729,20.808,7.729c8.361,0,15.077-2.517,20.123-7.566
	c5.071-5.083,7.589-11.371,7.589-18.909c0-6.917-3.035-12.672-9.068-17.226c-6.059-4.567-13.154-6.843-21.287-6.843
	C790.604,54.047,784.722,56.562,779.334,61.61 M760.349,263.404h81.202v-8.628c-6.805,0-11.547-0.834-14.191-2.518
	c-2.643-1.68-3.958-5.615-3.958-11.749V121.246c-10.726,1.392-19.744,2.278-27.105,2.694c-7.324,0.381-16.026,0.595-26.082,0.595
	h-9.865l0.329,9.5c3.654,0,6.247,0.1,7.778,0.316l4.2,0.872c3.237,1.797,4.869,4.909,4.869,9.286v98.922
	c0,7.563-4.617,11.345-13.863,11.345h-3.313V263.404z M666.939,230.086c-0.67-2.973-1.113-7.714-1.328-14.267
	c-0.228-6.527-0.329-14.876-0.329-24.968c0-36.302,9.575-54.427,28.726-54.427c10.131,0,16.709,6.629,19.82,19.922
	c0.645,1.985,1.088,4.402,1.315,7.273c0.202,2.87,0.315,6.299,0.315,10.257v3.579v4.164v5.336v13.396
	c0,36.894-8.031,55.335-24.095,55.335C678.388,255.687,670.229,247.161,666.939,230.086 M603.218,64.15
	c8.36,0,13.419,1.293,15.202,3.858c1.732,2.594,2.645,7.843,2.645,15.799v179.317h11.864c4.629-8.941,9.789-13.395,15.507-13.395
	c1.125,0,7.437,2.668,18.998,8.033c11.548,5.362,21.83,8.019,30.875,8.019c18.909,0,35.099-7.817,48.52-23.491
	c12.332-14.064,18.491-30.128,18.491-48.176c0-18.441-4.971-34.406-14.862-47.875c-11.661-15.873-27.181-23.804-46.559-23.804
	c-14.091,0-26.625,5.855-37.629,17.53V53.136c-8.146,1.202-20.137,1.797-35.984,1.797h-13.521h-13.546V64.15z M357.408,263.125
	h79.887v-8.941c-6.577-0.595-10.535-1.481-11.864-2.671c-2.644-1.782-3.959-5.134-3.959-10.081v-63.178
	c0-26.699,8.602-40.043,25.803-40.043c11.839,0,17.772,7.361,17.772,22.043v80.825c0,5.741-1.228,9.372-3.631,10.878
	c-2.442,1.478-6.273,2.227-11.561,2.227v8.941h76.914v-8.941c-5.856-0.595-9.789-1.481-11.813-2.671
	c-2.694-1.782-4.034-5.046-4.034-9.813v-69.01c0-8.324,1.858-15.862,5.616-22.591c4.844-7.931,11.56-11.889,20.123-11.889
	c11.245,0,16.848,5.362,16.848,16.086v84.684c0,6.159-0.834,10.231-2.466,12.216c-1.657,1.999-5.781,2.987-12.383,2.987v8.941
	h77.586v-8.941c-6.97-0.595-11.347-1.267-13.143-2.076c-2.683-1.782-4.035-5.362-4.035-10.75v-39.033v-38.756
	c0-27.813-14.533-41.727-43.573-41.727c-20.694,0-36.214,7.641-46.546,22.896c-9.765-15.255-23.831-22.896-42.247-22.896
	c-10.853,0-19.617,1.581-26.271,4.679c-4.427,2.367-11.193,7.438-20.275,15.244v-19.922c-16.746,1.783-37.641,2.694-62.749,2.694
	v8.6c11.687,0,17.518,3.884,17.518,11.624v95.724c0,5.148-1.112,8.728-3.313,10.713c-2.214,1.999-5.944,2.987-11.22,2.987h-1.606
	h-1.378V263.125z M297.442,217.602c0,8.31-1.973,15.748-5.932,22.3c-5.288,8.347-11.79,12.496-19.479,12.496
	c-13.647,0-20.464-6.942-20.464-20.805c0-14.09,3.958-24.299,11.863-30.649c6.4-5.146,17.721-9.221,34.012-12.191V217.602z
	 M297.442,179.238c-60.308,8.324-90.461,25.78-90.461,52.354c0,10.308,4.465,18.783,13.37,25.41
	c8.916,6.652,19.199,9.981,30.875,9.981c17.177,0,32.899-6.945,47.203-20.833c5.073,7.982,9.588,13.153,13.548,15.622
	c5.046,3.466,11.99,5.211,20.806,5.211c8.335,0,18.909-2.771,31.672-8.35l-2.302-6.236l-6.944,1.19
	c-8.361,0-12.534-5.339-12.534-16.012v-76.258c0-15.647-6.501-26.423-19.479-32.355c-9.019-4.351-23.21-6.527-42.587-6.527
	c-15.849,0-29.61,2.378-41.271,7.145c-15.179,6.527-22.769,15.964-22.769,28.231c0,5.579,2.202,10.132,6.603,13.686
	c5.06,3.568,10.448,5.362,16.166,5.362c6.375,0,12.104-1.694,17.176-5.058c5.287-3.958,7.931-8.526,7.931-13.674
	c0-4.565-1.556-8.523-4.642-11.889c-3.96-3.58-5.933-5.958-5.933-7.145c2.201-5.553,9.12-8.324,20.808-8.324
	c15.178,0,22.767,6.74,22.767,20.212V179.238z"/>
<path fill="#231F20" d="M96.345,144.748c0-32.039,7.488-48.077,22.451-48.077c15.203,0,22.83,13.193,22.83,39.54
	c0,7.373-0.24,13.432-0.708,18.176c-0.468,4.742-1.062,8.575-1.758,11.533c-3.036,12.219-9.814,18.328-20.364,18.328
	C103.833,184.248,96.345,171.094,96.345,144.748 M85.821,251.917c-3.984,0-9.07,0.305-15.255,0.962
	c-6.222,0.621-11.066,1.341-14.583,2.201c-12.155,3.363-18.239,9.272-18.239,17.721c0,12.433,11.244,21.363,33.708,26.85
	c14.015,3.58,30.875,5.365,50.506,5.365c56.159,0,84.238-17.482,84.238-52.479c0-15.354-8.083-26.107-24.222-32.227
	c-6.779-2.531-14.09-4.428-21.931-5.692c-7.83-1.278-17.721-1.896-29.636-1.896c-11.712,0-21.705-0.382-30.028-1.113
	c-8.284-0.746-14.191-1.418-17.72-2.036c-7.247-1.481-10.878-4.124-10.878-7.931c0-6.085,6.894-9.147,20.706-9.147
	c27.84,0,45.51-0.86,52.998-2.54c17.53-3.807,30.406-13.914,38.59-30.356c3.756-7.589,5.628-14.953,5.628-22.124
	c0-8.21-4.794-18.544-14.382-30.988c2.1-2.745,4.073-4.112,5.958-4.112c3.504,0,7.02,3.465,10.523,10.437
	c3.984,6.943,9.84,10.448,17.556,10.448c3.971-0.444,7.361-2.025,10.182-4.744c2.795-2.745,4.199-5.807,4.199-9.169
	c0-5.49-2.694-10.5-8.056-15.027c-5.389-4.528-11.245-6.792-17.57-6.792c-10.978,0-21.527,3.995-31.569,12.003
	c-14.976-8.008-30.079-12.003-45.282-12.003c-21.301,0-38.237,4.693-50.872,14.127c-14.039,10.459-21.06,24.704-21.06,42.715
	c0,14.862,8.778,28.155,26.308,39.879c-21.527,7.856-32.265,18.757-32.265,32.773c0,16.115,11.801,26.372,35.429,30.823
	l65.278,5.111c23.627,2.099,35.44,8.056,35.44,17.795c0,8.702-6.198,14.938-18.606,18.757c-8.879,2.771-18.934,4.138-30.178,4.138
	c-11.472,0-22.691-1.481-33.671-4.428c-15.228-3.984-22.817-10.004-22.817-18c0-6.968,3.857-11.915,11.573-14.874V251.917z"/>
<path fill="#231F20" d="M944.054,258.773h2.074l1.873,0.985l-1.733,1.139h-2.214V258.773z M946.698,261.909l2.517-2.099
	l-2.846-2.073h-3.504v7.777h1.188v-3.605h1.354l2.302,3.605h1.429L946.698,261.909z M945.534,267.564
	c-3.314,0-6.058-2.719-6.058-5.957c0-3.48,3.137-5.906,6.058-5.906c2.821,0,6.008,2.426,6.008,5.906
	C951.542,265.072,948.595,267.564,945.534,267.564 M945.534,268.564c4.022,0,7.235-3.099,7.235-6.957
	c0-3.822-3.213-6.945-7.235-6.945c-4.035,0-7.272,3.124-7.272,6.945C938.262,265.465,941.499,268.564,945.534,268.564"/>
</svg>
